<?xml version="1.0" encoding="UTF-8" standalone="no"?>
<!DOCTYPE svg PUBLIC "-//W3C//DTD SVG 1.1//EN" "http://www.w3.org/Graphics/SVG/1.1/DTD/svg11.dtd">
<svg width="100%" height="100%" viewBox="0 0 1776 349" version="1.1" xmlns="http://www.w3.org/2000/svg" xmlns:xlink="http://www.w3.org/1999/xlink" xml:space="preserve" xmlns:serif="http://www.serif.com/" style="fill-rule:evenodd;clip-rule:evenodd;stroke-linejoin:round;stroke-miterlimit:2;">
    <g>
        <clipPath id="_clip1">
            <rect x="20.5" y="26.5" width="1671.5" height="301.5"/>
        </clipPath>
        <g clip-path="url(#_clip1)">
            <path d="M1429,143.5L1426,145.5L1420,146.5L1411,151.5L1400.5,163L1397.5,171L1397.5,177L1396.5,178L1397.5,192.5L1402.5,201.5L1408,207L1416,212L1430,218L1453,224L1455,226L1460,227L1465.5,230.5L1471.5,237.5L1471.5,245L1469,249.5L1463,255.5L1454,258.5L1442.5,258.5L1424.5,253.5L1405,242.5L1390.5,259L1390.5,260.5L1398,266L1412,273L1427,278L1444,280L1457.5,280L1458.5,279L1468.5,278L1482.5,272L1495,259.5L1499,248.5L1498,228L1493,219L1482.5,209.5L1471.5,205.5L1469.5,203.5L1434.5,192.5L1428,188L1424,183L1424,174.5L1432.5,166L1439.5,164L1451,164L1467,168L1482.5,176L1493,161.5L1494.5,157.5L1478.5,148.5L1462.5,143.5L1457.5,143.5L1456.5,142.5L1429,143.5ZM1079.5,151.5L1071.5,146.5L1062.5,143.5L1039,142.5L1028,145.5L1022,148.5L1015,153.5L1008.5,160L1008.5,163L1005.5,164.5L1004,163L1004,145.5L997.5,145.5L996.5,144.5L976.5,145L976.5,277.5L1005,278L1005,202.5L1006,201.5L1006,192.5L1011.5,180L1018,172.5L1028.5,166L1033.5,166L1034.5,165L1047,166L1057.5,171.5L1066.5,182.5L1069.5,190.5L1069.5,195.5L1070.5,196.5L1070.5,277.5L1099,277.5L1099,268L1098,267L1098,254.5L1099,253.5L1099,204L1098,201.5L1099,200.5L1099,196L1098,195L1098,188L1094,171L1092,169L1091,165L1079.5,151.5ZM891,142.5L875,142.5L862,146.5L849.5,156.5L844.5,162L844.5,164L842,167.5L839,166L840,162.5L839,145.5L830.5,145.5L829.5,144.5L812.5,145L812.5,277.5L841,277L840,209.5L844,193.5L849.5,184L860,174.5L866.5,171L874.5,169L891,168L891,142.5ZM604,157.5L604.5,161.5L614.5,176L616.5,176L628.5,169L635.5,168L639.5,166L658,165L670,168L676.5,171.5L682,178L686.5,186.5L687.5,197L685,199.5L646,198.5L645,199.5L630,200.5L617,204.5L606,211.5L596.5,225L593.5,239L596.5,255.5L601.5,263.5L613,273L624,278L634,280L648.5,280L649.5,279L660.5,278L667.5,275L680.5,266L684.5,260L688.5,257.5L689.5,258.5L689.5,277L712,277L714,278L714,186L712,182L711,174L703,160.5L695.5,153.5L687.5,148.5L666.5,142.5L639,143.5L619,149.5L604,157.5ZM623,243L624,230.5L631,222.5L639.5,218L644.5,218L645.5,217L685,217L687.5,219.5L687.5,229L684.5,238L681,243.5L673.5,251L666,255.5L656,258.5L638.5,257.5L629,252L623,243ZM1246,141.5L1224,146.5L1207,156.5L1198.5,165L1190.5,177L1185.5,189L1184.5,200L1182.5,207L1182.5,215.5L1183.5,216.5L1184.5,229.5L1187.5,236.5L1187.5,239.5L1194.5,252.5L1207,265L1218,272L1232,278L1243,279L1244,280L1259.5,280L1260.5,279L1272.5,278L1281.5,275L1293.5,268L1303.5,259L1303.5,257.5L1285.5,242.5L1284,242.5L1273.5,251L1264,255.5L1259,256.5L1239.5,255.5L1229,250L1220.5,241.5L1214,231L1212,223.5L1214.5,221L1317,221L1317,202L1315,196L1315,191L1307,172L1305,170.5L1303,166L1293.5,156.5L1283.5,149.5L1274.5,145.5L1255.5,141.5L1246,141.5ZM1212,197.5L1216.5,185L1220.5,179L1230,170.5L1242.5,165L1258,165L1269.5,169.5L1279,177L1284.5,185.5L1287.5,195.5L1287.5,201L1286,202.5L1213.5,202.5L1212,201L1212,197.5ZM125.5,149.5L110.5,143.5L100.5,141.5L82,142.5L77,143.5L64,149.5L51.5,161L49.5,165L48,165L46.5,163.5L47,150L46,145.5L43.5,144.5L20.5,144.5L20.5,328L48,328L48,259.5L50.5,258.5L59,268L71,275L87,279L104.5,279L118.5,275L124.5,272L134.5,265L145,253.5L150,241.5L152,239.5L156,223.5L156,198L155,197L155,192L150,177L144,167L134.5,156.5L125.5,149.5ZM82.5,165L97,166L106,171L108,171L118,180L123.5,188.5L127.5,199.5L127.5,206.5L128.5,207.5L127.5,220L125.5,224L125.5,227L117,241.5L106.5,250L93,255.5L80.5,255.5L72.5,253.5L62,247L56.5,241.5L51,233L47,218L48,196.5L50,190.5L56.5,180L69,169.5L73.5,167L82.5,165ZM1725.5,134.5L1724.5,137L1724.5,157L1727,157L1727,148.5L1728,147.5L1727,137.5L1728.5,136L1739,136L1740.5,137.5L1740.5,142L1737,145.5L1733,145.5L1732.5,147L1735.5,149.5L1737.5,155L1739.5,157L1742,157L1737.5,148.5L1737.5,147L1743,142.5L1742,137L1739.5,134.5L1725.5,134.5ZM382,129.5L361,129.5L344,149.5L326.5,142.5L316.5,140.5L295,140.5L282,143.5L265,151.5L259,155.5L251.5,163L241.5,177L237.5,188L234.5,202L234.5,219.5L235.5,220.5L235.5,227.5L242.5,245.5L247.5,253.5L257.5,263.5L257.5,265L230.5,300L255,300L274.5,275L282,278L302,282L326.5,280L345.5,272L355.5,265L364,256.5L370,248.5L378,230.5L379,218.5L380,217.5L380,205L379,204L378,193L376,190L376,186L373,179L367,169L360,161L360,159.5L382,129.5ZM344,182L350.5,191.5L353.5,203.5L353.5,219L351.5,224L351.5,228L344,241.5L332.5,252L325,256.5L319,258.5L301.5,259.5L290.5,256.5L288.5,253L341,185.5L342,182.5L344,182ZM326.5,167.5L328.5,171L276,239.5L272,242L267.5,236.5L263,228L260,216L260,203.5L262,194.5L265,186.5L269.5,180L281,169.5L286.5,166L295.5,163L301.5,163L302.5,162L317,163L326.5,167.5ZM1719,126.5L1711.5,135L1709.5,142L1710.5,152.5L1714.5,159.5L1721,165L1730.5,167.5L1741.5,166L1747.5,163L1752,158.5L1755,152.5L1755,138L1752,132L1747,127.5L1739.5,123.5L1727,123.5L1719,126.5ZM1727.5,125L1738,125L1743,127L1749,133L1752.5,138.5L1753.5,142.5L1752.5,153L1745.5,162L1739,165.5L1724.5,164.5L1714.5,155.5L1712,150L1712,140.5L1715.5,134L1722.5,127L1727.5,125ZM1606.5,113.5L1600.5,143L1599,144.5L1579,144.5L1577.5,145.5L1576.5,151L1576.5,165.5L1577.5,167L1599,167L1601.5,169.5L1601.5,248.5L1603.5,252.5L1603.5,255.5L1608.5,264.5L1615,271L1624,276L1636,279L1659.5,278L1661.5,276L1665,276L1666,274.5L1666,270L1665,269L1665,253.5L1666,251.5L1654,254.5L1642.5,253.5L1634,248L1630,241L1629,236L1629,179.5L1630,178.5L1630,172L1629,169.5L1631.5,167L1665,167L1665,145L1631.5,144.5L1629,142L1629,113.5L1606.5,113.5ZM469.5,99.5L469.5,277.5L495,277L497.5,278L498,100L469.5,99.5ZM851.5,26.5L850.5,26.5L850.5,31L848.5,37L847.5,52L845,53L832.5,44.5L841,56L841,57.5L839,59.5L816.5,62L818,64L838,66L841,68L833.5,80L844.5,73L847.5,74.5L847.5,83.5L848.5,84.5L850,98L852,96.5L854,74.5L857.5,72.5L868,80L861,69L862.5,66L871.5,66L872.5,65L885,63.5L885,62.5L876.5,60.5L862.5,59.5L861,56L867.5,46.5L866,46.5L857,53.5L854,52L854,42L853,41L853,33L851.5,26.5Z" style="fill:#1E211D;"/>
        </g>
    </g>
</svg>
