<svg xmlns="http://www.w3.org/2000/svg" viewBox="0 0 1776 349" width="1776" height="349" fill="none">
  <g fill="#1E211D" fill-rule="evenodd">
    <path d="M 1429.00 143.50 L 1426.00 145.50 L 1420.00 146.50 L 1411.00 151.50 L 1400.50 163.00 L 1397.50 171.00 L 1397.50 177.00 L 1396.50 178.00 L 1397.50 192.50 L 1402.50 201.50 L 1408.00 207.00 L 1416.00 212.00 L 1430.00 218.00 L 1453.00 224.00 L 1455.00 226.00 L 1460.00 227.00 L 1465.50 230.50 L 1471.50 237.50 L 1471.50 245.00 L 1469.00 249.50 L 1463.00 255.50 L 1454.00 258.50 L 1442.50 258.50 L 1424.50 253.50 L 1405.00 242.50 L 1390.50 259.00 L 1390.50 260.50 L 1398.00 266.00 L 1412.00 273.00 L 1427.00 278.00 L 1444.00 280.00 L 1457.50 280.00 L 1458.50 279.00 L 1468.50 278.00 L 1482.50 272.00 L 1495.00 259.50 L 1499.00 248.50 L 1498.00 228.00 L 1493.00 219.00 L 1482.50 209.50 L 1471.50 205.50 L 1469.50 203.50 L 1434.50 192.50 L 1428.00 188.00 L 1424.00 183.00 L 1424.00 174.50 L 1432.50 166.00 L 1439.50 164.00 L 1451.00 164.00 L 1467.00 168.00 L 1482.50 176.00 L 1493.00 161.50 L 1494.50 157.50 L 1478.50 148.50 L 1462.50 143.50 L 1457.50 143.50 L 1456.50 142.50 Z M 1079.50 151.50 L 1071.50 146.50 L 1062.50 143.50 L 1039.00 142.50 L 1028.00 145.50 L 1022.00 148.50 L 1015.00 153.50 L 1008.50 160.00 L 1008.50 163.00 L 1005.50 164.50 L 1004.00 163.00 L 1004.00 145.50 L 997.50 145.50 L 996.50 144.50 L 976.50 145.00 L 976.50 277.50 L 1005.00 278.00 L 1005.00 202.50 L 1006.00 201.50 L 1006.00 192.50 L 1011.50 180.00 L 1018.00 172.50 L 1028.50 166.00 L 1033.50 166.00 L 1034.50 165.00 L 1047.00 166.00 L 1057.50 171.50 L 1066.50 182.50 L 1069.50 190.50 L 1069.50 195.50 L 1070.50 196.50 L 1070.50 277.50 L 1099.00 277.50 L 1099.00 268.00 L 1098.00 267.00 L 1098.00 254.50 L 1099.00 253.50 L 1099.00 204.00 L 1098.00 201.50 L 1099.00 200.50 L 1099.00 196.00 L 1098.00 195.00 L 1098.00 188.00 L 1094.00 171.00 L 1092.00 169.00 L 1091.00 165.00 Z M 891.00 142.50 L 875.00 142.50 L 862.00 146.50 L 849.50 156.50 L 844.50 162.00 L 844.50 164.00 L 842.00 167.50 L 839.00 166.00 L 840.00 162.50 L 839.00 145.50 L 830.50 145.50 L 829.50 144.50 L 812.50 145.00 L 812.50 277.50 L 841.00 277.00 L 840.00 209.50 L 844.00 193.50 L 849.50 184.00 L 860.00 174.50 L 866.50 171.00 L 874.50 169.00 L 891.00 168.00 Z M 604.00 157.50 L 604.50 161.50 L 614.50 176.00 L 616.50 176.00 L 628.50 169.00 L 635.50 168.00 L 639.50 166.00 L 658.00 165.00 L 670.00 168.00 L 676.50 171.50 L 682.00 178.00 L 686.50 186.50 L 687.50 197.00 L 685.00 199.50 L 646.00 198.50 L 645.00 199.50 L 630.00 200.50 L 617.00 204.50 L 606.00 211.50 L 596.50 225.00 L 593.50 239.00 L 596.50 255.50 L 601.50 263.50 L 613.00 273.00 L 624.00 278.00 L 634.00 280.00 L 648.50 280.00 L 649.50 279.00 L 660.50 278.00 L 667.50 275.00 L 680.50 266.00 L 684.50 260.00 L 688.50 257.50 L 689.50 258.50 L 689.50 277.00 L 712.00 277.00 L 714.00 278.00 L 714.00 186.00 L 712.00 182.00 L 711.00 174.00 L 703.00 160.50 L 695.50 153.50 L 687.50 148.50 L 666.50 142.50 L 639.00 143.50 L 619.00 149.50 Z M 623.00 243.00 L 624.00 230.50 L 631.00 222.50 L 639.50 218.00 L 644.50 218.00 L 645.50 217.00 L 685.00 217.00 L 687.50 219.50 L 687.50 229.00 L 684.50 238.00 L 681.00 243.50 L 673.50 251.00 L 666.00 255.50 L 656.00 258.50 L 638.50 257.50 L 629.00 252.00 Z M 1246.00 141.50 L 1224.00 146.50 L 1207.00 156.50 L 1198.50 165.00 L 1190.50 177.00 L 1185.50 189.00 L 1184.50 200.00 L 1182.50 207.00 L 1182.50 215.50 L 1183.50 216.50 L 1184.50 229.50 L 1187.50 236.50 L 1187.50 239.50 L 1194.50 252.50 L 1207.00 265.00 L 1218.00 272.00 L 1232.00 278.00 L 1243.00 279.00 L 1244.00 280.00 L 1259.50 280.00 L 1260.50 279.00 L 1272.50 278.00 L 1281.50 275.00 L 1293.50 268.00 L 1303.50 259.00 L 1303.50 257.50 L 1285.50 242.50 L 1284.00 242.50 L 1273.50 251.00 L 1264.00 255.50 L 1259.00 256.50 L 1239.50 255.50 L 1229.00 250.00 L 1220.50 241.50 L 1214.00 231.00 L 1212.00 223.50 L 1214.50 221.00 L 1317.00 221.00 L 1317.00 202.00 L 1315.00 196.00 L 1315.00 191.00 L 1307.00 172.00 L 1305.00 170.50 L 1303.00 166.00 L 1293.50 156.50 L 1283.50 149.50 L 1274.50 145.50 L 1255.50 141.50 Z M 1212.00 197.50 L 1216.50 185.00 L 1220.50 179.00 L 1230.00 170.50 L 1242.50 165.00 L 1258.00 165.00 L 1269.50 169.50 L 1279.00 177.00 L 1284.50 185.50 L 1287.50 195.50 L 1287.50 201.00 L 1286.00 202.50 L 1213.50 202.50 L 1212.00 201.00 Z M 125.50 149.50 L 110.50 143.50 L 100.50 141.50 L 82.00 142.50 L 77.00 143.50 L 64.00 149.50 L 51.50 161.00 L 49.50 165.00 L 48.00 165.00 L 46.50 163.50 L 47.00 150.00 L 46.00 145.50 L 43.50 144.50 L 20.50 144.50 L 20.50 328.00 L 48.00 328.00 L 48.00 259.50 L 50.50 258.50 L 59.00 268.00 L 71.00 275.00 L 87.00 279.00 L 104.50 279.00 L 118.50 275.00 L 124.50 272.00 L 134.50 265.00 L 145.00 253.50 L 150.00 241.50 L 152.00 239.50 L 156.00 223.50 L 156.00 198.00 L 155.00 197.00 L 155.00 192.00 L 150.00 177.00 L 144.00 167.00 L 134.50 156.50 Z M 82.50 165.00 L 97.00 166.00 L 106.00 171.00 L 108.00 171.00 L 118.00 180.00 L 123.50 188.50 L 127.50 199.50 L 127.50 206.50 L 128.50 207.50 L 127.50 220.00 L 125.50 224.00 L 125.50 227.00 L 117.00 241.50 L 106.50 250.00 L 93.00 255.50 L 80.50 255.50 L 72.50 253.50 L 62.00 247.00 L 56.50 241.50 L 51.00 233.00 L 47.00 218.00 L 48.00 196.50 L 50.00 190.50 L 56.50 180.00 L 69.00 169.50 L 73.50 167.00 Z M 1725.50 134.50 L 1724.50 137.00 L 1724.50 157.00 L 1727.00 157.00 L 1727.00 148.50 L 1728.00 147.50 L 1727.00 137.50 L 1728.50 136.00 L 1739.00 136.00 L 1740.50 137.50 L 1740.50 142.00 L 1737.00 145.50 L 1733.00 145.50 L 1732.50 147.00 L 1735.50 149.50 L 1737.50 155.00 L 1739.50 157.00 L 1742.00 157.00 L 1737.50 148.50 L 1737.50 147.00 L 1743.00 142.50 L 1742.00 137.00 L 1739.50 134.50 Z M 382.00 129.50 L 361.00 129.50 L 344.00 149.50 L 326.50 142.50 L 316.50 140.50 L 295.00 140.50 L 282.00 143.50 L 265.00 151.50 L 259.00 155.50 L 251.50 163.00 L 241.50 177.00 L 237.50 188.00 L 234.50 202.00 L 234.50 219.50 L 235.50 220.50 L 235.50 227.50 L 242.50 245.50 L 247.50 253.50 L 257.50 263.50 L 257.50 265.00 L 230.50 300.00 L 255.00 300.00 L 274.50 275.00 L 282.00 278.00 L 302.00 282.00 L 326.50 280.00 L 345.50 272.00 L 355.50 265.00 L 364.00 256.50 L 370.00 248.50 L 378.00 230.50 L 379.00 218.50 L 380.00 217.50 L 380.00 205.00 L 379.00 204.00 L 378.00 193.00 L 376.00 190.00 L 376.00 186.00 L 373.00 179.00 L 367.00 169.00 L 360.00 161.00 L 360.00 159.50 Z M 344.00 182.00 L 350.50 191.50 L 353.50 203.50 L 353.50 219.00 L 351.50 224.00 L 351.50 228.00 L 344.00 241.50 L 332.50 252.00 L 325.00 256.50 L 319.00 258.50 L 301.50 259.50 L 290.50 256.50 L 288.50 253.00 L 341.00 185.50 L 342.00 182.50 Z M 326.50 167.50 L 328.50 171.00 L 276.00 239.50 L 272.00 242.00 L 267.50 236.50 L 263.00 228.00 L 260.00 216.00 L 260.00 203.50 L 262.00 194.50 L 265.00 186.50 L 269.50 180.00 L 281.00 169.50 L 286.50 166.00 L 295.50 163.00 L 301.50 163.00 L 302.50 162.00 L 317.00 163.00 Z M 1719.00 126.50 L 1711.50 135.00 L 1709.50 142.00 L 1710.50 152.50 L 1714.50 159.50 L 1721.00 165.00 L 1730.50 167.50 L 1741.50 166.00 L 1747.50 163.00 L 1752.00 158.50 L 1755.00 152.50 L 1755.00 138.00 L 1752.00 132.00 L 1747.00 127.50 L 1739.50 123.50 L 1727.00 123.50 Z M 1727.50 125.00 L 1738.00 125.00 L 1743.00 127.00 L 1749.00 133.00 L 1752.50 138.50 L 1753.50 142.50 L 1752.50 153.00 L 1745.50 162.00 L 1739.00 165.50 L 1724.50 164.50 L 1714.50 155.50 L 1712.00 150.00 L 1712.00 140.50 L 1715.50 134.00 L 1722.50 127.00 Z M 1606.50 113.50 L 1600.50 143.00 L 1599.00 144.50 L 1579.00 144.50 L 1577.50 145.50 L 1576.50 151.00 L 1576.50 165.50 L 1577.50 167.00 L 1599.00 167.00 L 1601.50 169.50 L 1601.50 248.50 L 1603.50 252.50 L 1603.50 255.50 L 1608.50 264.50 L 1615.00 271.00 L 1624.00 276.00 L 1636.00 279.00 L 1659.50 278.00 L 1661.50 276.00 L 1665.00 276.00 L 1666.00 274.50 L 1666.00 270.00 L 1665.00 269.00 L 1665.00 253.50 L 1666.00 251.50 L 1654.00 254.50 L 1642.50 253.50 L 1634.00 248.00 L 1630.00 241.00 L 1629.00 236.00 L 1629.00 179.50 L 1630.00 178.50 L 1630.00 172.00 L 1629.00 169.50 L 1631.50 167.00 L 1665.00 167.00 L 1665.00 145.00 L 1631.50 144.50 L 1629.00 142.00 L 1629.00 113.50 Z M 469.50 99.50 L 469.50 277.50 L 495.00 277.00 L 497.50 278.00 L 498.00 100.00 Z M 851.50 26.50 L 850.50 26.50 L 850.50 31.00 L 848.50 37.00 L 847.50 52.00 L 845.00 53.00 L 832.50 44.50 L 841.00 56.00 L 841.00 57.50 L 839.00 59.50 L 816.50 62.00 L 818.00 64.00 L 838.00 66.00 L 841.00 68.00 L 833.50 80.00 L 844.50 73.00 L 847.50 74.50 L 847.50 83.50 L 848.50 84.50 L 850.00 98.00 L 852.00 96.50 L 854.00 74.50 L 857.50 72.50 L 868.00 80.00 L 861.00 69.00 L 862.50 66.00 L 871.50 66.00 L 872.50 65.00 L 885.00 63.50 L 885.00 62.50 L 876.50 60.50 L 862.50 59.50 L 861.00 56.00 L 867.50 46.50 L 866.00 46.50 L 857.00 53.50 L 854.00 52.00 L 854.00 42.00 L 853.00 41.00 L 853.00 33.00 Z"/>
  </g>
</svg>