<svg xmlns="http://www.w3.org/2000/svg" viewBox="812 22 78 78" fill="none">
  <path
    fill="#10213f"
    d="M 851.50 26.50 L 850.50 26.50 L 850.50 31.00 L 848.50 37.00 L 847.50 52.00 L 845.00 53.00 L 832.50 44.50 L 841.00 56.00 L 841.00 57.50 L 839.00 59.50 L 816.50 62.00 L 818.00 64.00 L 838.00 66.00 L 841.00 68.00 L 833.50 80.00 L 844.50 73.00 L 847.50 74.50 L 847.50 83.50 L 848.50 84.50 L 850.00 98.00 L 852.00 96.50 L 854.00 74.50 L 857.50 72.50 L 868.00 80.00 L 861.00 69.00 L 862.50 66.00 L 871.50 66.00 L 872.50 65.00 L 885.00 63.50 L 885.00 62.50 L 876.50 60.50 L 862.50 59.50 L 861.00 56.00 L 867.50 46.50 L 866.00 46.50 L 857.00 53.50 L 854.00 52.00 L 854.00 42.00 L 853.00 41.00 L 853.00 33.00 Z"
  />
</svg>
